<svg id="Layer_1" data-name="Layer 1" xmlns="http://www.w3.org/2000/svg" width="320" height="190" viewBox="0 0 320 190">
  <defs>
    <style>
      .cls-1 {
        fill: #001866;
      }

      .cls-2 {
        fill: #fef3ff;
      }

      .cls-3 {
        fill: #002060;
      }

      .cls-4 {
        fill: #d800d8;
      }
    </style>
  </defs>
  <g>
    <g>
      <path class="cls-1" d="M314.37,79a9,9,0,0,0,3.35-3,9.09,9.09,0,0,0,1.1-7.72c-4.66-15-15.39-23.54-29.44-23.54-.51,0-1,0-1.59,0-7.19.34-12.15,2.69-15.48,5.26-.17-13.06.08-25.37.85-33.75a9.1,9.1,0,0,0-11.57-9.55A105.25,105.25,0,0,1,245.25,9.6a9.08,9.08,0,0,0-8.12,10.66,237.7,237.7,0,0,1,2.94,28.33,28.83,28.83,0,0,0-5.65-3.05,34,34,0,0,0-12.86-2.7,24.62,24.62,0,0,0-19.46,9c-.38.46-.73.94-1.07,1.42a21.49,21.49,0,0,0-16.67-8,21.82,21.82,0,0,0-10.89,2.93,19.58,19.58,0,0,0-6.79-2.55,21.9,21.9,0,0,0-4-.36,23,23,0,0,0-3.32.25,9.09,9.09,0,0,0-8.36-1.06A31.92,31.92,0,0,1,144.2,46a18,18,0,0,0-.27-8.14.83.83,0,0,0,0-.15c-1.91-7-8.51-11.64-16.43-11.64a20.9,20.9,0,0,0-8.55,1.86C110.35,31.62,106,40,108.28,48.5a22.86,22.86,0,0,0-7.83-2.73l-.13,0a28.5,28.5,0,0,0-3.89-.28,25.45,25.45,0,0,0-5.93.7,9.11,9.11,0,0,0-8.17-1,46.62,46.62,0,0,1-11.32,2A9.09,9.09,0,0,0,65.86,49c-1.36-7.66-2.48-15-3.28-21.45a9.07,9.07,0,0,0-9-8,9.17,9.17,0,0,0-2,.21,96.86,96.86,0,0,1-17.88,2H32.32a9.08,9.08,0,0,0-9.07,8.66c-.92,20.05-7.14,52.43-16.84,73a9.09,9.09,0,0,0,7.91,13c.1,0,10.09.34,19.24,1.53a9,9,0,0,0,1.16.07,9.07,9.07,0,0,0,8.61-6.18,9.11,9.11,0,0,0,9.55,5c4.27-.65,7.82-1.43,10.94-2.13l2.64-.58a9.08,9.08,0,0,0,5.39,1.79h.27c1.13,0,2.34,0,3.61,0,6,0,11.43.37,11.49.38l.63,0a9.1,9.1,0,0,0,6.52-2.76c.19-.2.37-.41.54-.62,3.26.46,8.36,1.22,13.12,2.09a9.06,9.06,0,0,0,6-1,9.07,9.07,0,0,0,5,1.48,9.43,9.43,0,0,0,1.4-.11c5.18-.81,10.28-1.46,13.48-1.84a7.53,7.53,0,0,0,.56.57,9,9,0,0,0,7.71,2.27c6.55-1.14,14.82-1.58,14.91-1.59a9,9,0,0,0,3.54-.92,105.7,105.7,0,0,1,12.49,1.76,8.67,8.67,0,0,0,1.89.2,9.09,9.09,0,0,0,5-1.49,9.69,9.69,0,0,0,1.65-1.4,93.48,93.48,0,0,1,12.65,1.77,9.4,9.4,0,0,0,2,.21,9.09,9.09,0,0,0,7.7-4.29,28.82,28.82,0,0,0,15.58,4.71,21,21,0,0,0,2.54-.14l.21,0a36.52,36.52,0,0,0,3.72-.72,9,9,0,0,0,4.74.74s5-.55,10.19-.55c.76,0,1.5,0,2.18,0h0a9,9,0,0,0,4,.92c.27,0,.55,0,.82,0,.1,0,10.09-.92,19.37-1.59a9.07,9.07,0,0,0,6.43-3.37,35.29,35.29,0,0,0,17.49,4.54h.47c15.95,0,27.33-9.14,27.67-22.24A19.33,19.33,0,0,0,314.37,79Z"/>
      <path class="cls-2" d="M309.53,73a9,9,0,0,0,3.35-3,9.09,9.09,0,0,0,1.1-7.72c-4.67-15-15.4-23.54-29.44-23.54-.51,0-1,0-1.6,0-7.18.34-12.15,2.69-15.48,5.26-.16-13.06.09-25.37.85-33.75A9.1,9.1,0,0,0,256.74.7a105.21,105.21,0,0,1-16.33,2.88,9.08,9.08,0,0,0-8.12,10.66,242,242,0,0,1,2.94,28.33,29.12,29.12,0,0,0-5.65-3,34.09,34.09,0,0,0-12.86-2.7,24.64,24.64,0,0,0-19.47,9c-.37.46-.73.94-1.07,1.42a21.47,21.47,0,0,0-16.66-8,21.79,21.79,0,0,0-10.89,2.93,19.62,19.62,0,0,0-6.8-2.55,21.79,21.79,0,0,0-3.94-.36,22.87,22.87,0,0,0-3.32.25,9.11,9.11,0,0,0-8.37-1.06A31.83,31.83,0,0,1,139.36,40a18.18,18.18,0,0,0-.27-8.14c0-.05,0-.1,0-.15-1.91-7-8.52-11.64-16.43-11.64a20.9,20.9,0,0,0-8.55,1.86C105.5,25.6,101.17,34,103.44,42.48a22.86,22.86,0,0,0-7.83-2.73l-.13,0a28.5,28.5,0,0,0-3.89-.28,25.54,25.54,0,0,0-5.94.7,9,9,0,0,0-8.16-1,46.62,46.62,0,0,1-11.32,2A9.12,9.12,0,0,0,61,43c-1.35-7.66-2.47-15-3.27-21.45a9.09,9.09,0,0,0-11-7.75,97,97,0,0,1-17.88,2H27.48a9.07,9.07,0,0,0-9.07,8.66c-.93,20-7.14,52.43-16.85,73a9.09,9.09,0,0,0,7.91,13c.1,0,10.1.34,19.24,1.53a9.21,9.21,0,0,0,6.89-1.95,9.05,9.05,0,0,0,2.88-4.16,9.34,9.34,0,0,0,2.19,2.89,9.08,9.08,0,0,0,6,2.26,8.89,8.89,0,0,0,1.36-.1c4.28-.65,7.82-1.43,10.95-2.13l2.64-.58A9.06,9.06,0,0,0,67,109.9h.27c1.12,0,2.34,0,3.61,0,6,0,11.43.37,11.48.38l.63,0a9.07,9.07,0,0,0,6.52-2.76c.19-.2.38-.41.55-.62,3.26.46,8.36,1.22,13.12,2.09a9.18,9.18,0,0,0,1.64.15,9.06,9.06,0,0,0,4.39-1.14,9.13,9.13,0,0,0,5,1.48,9.54,9.54,0,0,0,1.4-.11c5.17-.81,10.27-1.46,13.48-1.84.18.2.36.39.55.57a9,9,0,0,0,7.72,2.27c6.55-1.14,14.82-1.58,14.9-1.59a8.93,8.93,0,0,0,3.54-.92,105.53,105.53,0,0,1,12.5,1.76,8.52,8.52,0,0,0,1.88.2,9.14,9.14,0,0,0,5-1.49,9.69,9.69,0,0,0,1.65-1.4,94.75,94.75,0,0,1,12.65,1.76,8.73,8.73,0,0,0,2,.22,9.11,9.11,0,0,0,7.7-4.29,28.82,28.82,0,0,0,15.58,4.71,21.15,21.15,0,0,0,2.54-.14l.2,0a36,36,0,0,0,3.72-.72,9,9,0,0,0,3.72.8,8.72,8.72,0,0,0,1-.06s5-.55,10.2-.55c.76,0,1.49,0,2.18,0h0a9,9,0,0,0,4,.92c.27,0,.55,0,.82,0,.1,0,10.08-.92,19.37-1.59a9,9,0,0,0,6.42-3.37,35.33,35.33,0,0,0,17.5,4.54h.46c16,0,27.34-9.14,27.68-22.24A19.33,19.33,0,0,0,309.53,73Z"/>
      <g>
        <path class="cls-3" d="M48.92,103a154.26,154.26,0,0,0-.8-17,85.57,85.57,0,0,0-13.71-.46c-1,6.4-1.83,12.79-2.29,18.51-9.71-1.26-20.1-1.6-20.1-1.6C21.84,81.59,28.7,48.23,29.73,26A103.06,103.06,0,0,0,51,23.78c3,23.88,9.83,57.46,16.57,75.51C61.48,100.21,56.46,101.81,48.92,103ZM42.18,49.83C40.24,56.34,38,65.93,36,76.22a98.45,98.45,0,0,0,10.85-1.15C45.72,66.62,44.12,57.94,42.18,49.83Z"/>
        <path class="cls-3" d="M90,98.49c5.6-16,4.12-33.7-.68-35.07-2.29-.68-4.46.23-6.4,2.86.46,13,1.37,27,2.29,36,0,0-8.23-.57-16-.34a298.55,298.55,0,0,0-.45-50.61s8.11-.34,14-2.51v5a16.48,16.48,0,0,1,13.59-4c13.82,2.17,17.25,21.82,10.63,51.29C99,99.63,90,98.49,90,98.49Z"/>
        <path class="cls-3" d="M126.49,45.71c-5.26,1.72-10.86,0-12-4.34-1.14-4,.92-8.11,5.48-10,5.26-2.4,11.31-.68,12.57,3.88C133.57,39.2,132.2,43.77,126.49,45.71Zm-10.06,55.75c2.29-14.39,1.37-35.64-.68-49.69A116.28,116.28,0,0,0,132,49.26c-.91,12.79.11,37.69,1.71,49.92C133.68,99.18,125.23,100.09,116.43,101.46Z"/>
        <path class="cls-3" d="M178.12,98.83c5.26-15.65,5.26-33.7.11-35.52a4.36,4.36,0,0,0-4.45.91c2.06,9.25,1.71,22.16-1.37,37.59a118.15,118.15,0,0,0-15.31-2.06c5.14-17,3.66-35-.68-36.33a4.89,4.89,0,0,0-4.8,1.26c.45,13.71,1.48,28.56,2.4,36.1a156.63,156.63,0,0,0-16,1.71c1.49-16.22,1.95-36.44-.34-52,0,0,8.11-.23,13.94-2.4-.12,1.49-.12,3-.12,4.57a13.42,13.42,0,0,1,11-3c3.31.57,5.94,2.52,8,5.83,4-5,9-6.74,13.71-5.83,12.79,2.52,16.56,23.88,9.48,51.18A104.2,104.2,0,0,0,178.12,98.83Z"/>
        <path class="cls-3" d="M227.13,101.23a31.82,31.82,0,0,0,.57-3.31,21.85,21.85,0,0,1-9.25,3.31c-7,.8-18.62-4.22-18.85-14.5-.23-11.43,9.94-16.91,19-17.14a19.15,19.15,0,0,1,10.05,2.63c-1.94-17.37-10.05-14-9-5.71a68.35,68.35,0,0,0-16.56,2c-2.75-13.48,7.76-26.73,25.36-19.53,19.42,7.88,10.51,37.92,12.45,51.63A108.12,108.12,0,0,0,227.13,101.23Zm-7-20.9c-3,1-5.94,4-4.68,7.08s5.25,3.31,7.77,2.4c3.54-1.37,5.94-5.14,4.91-7.43C226.9,79.76,222.9,79.3,220.16,80.33Z"/>
        <path class="cls-3" d="M244.49,101.58c4.35-25.59,2.75-67.06-1-87.85a114.89,114.89,0,0,0,18-3.2c-1.95,21.36-.69,68.08,2.51,89.45C254.55,100.66,244.49,101.58,244.49,101.58Z"/>
        <path class="cls-3" d="M288.7,101.12c-8.11-.11-15.3-2.86-21.36-11a79.42,79.42,0,0,1,10.28-11.88c3.89,7.88,10.85,9.83,12.57,7.77,1.37-1.71.46-4.68-7-7.88-6.74-2.86-12.68-7.08-13-14.62-.35-6.06,3.42-14.06,15.42-14.63,12.91-.57,19.19,8.34,21.93,17.14a45.27,45.27,0,0,0-14.73,4.34c-3.43-8.91-9-8.57-8.57-5C285.62,75,308,73,307.67,87.75,307.44,96.55,299,101.23,288.7,101.12Z"/>
      </g>
      <g>
        <path class="cls-4" d="M46.67,101.84a152,152,0,0,0-.8-17,86.47,86.47,0,0,0-13.71-.45c-1,6.39-1.82,12.79-2.28,18.5-9.71-1.26-20.11-1.6-20.11-1.6C19.6,80.48,26.45,47.12,27.48,24.85a103.1,103.1,0,0,0,21.25-2.17c3,23.87,9.82,57.46,16.56,75.51C59.24,99.1,54.21,100.7,46.67,101.84ZM39.93,48.72C38,55.23,35.71,64.83,33.76,75.11A95.82,95.82,0,0,0,44.62,74C43.47,65.52,41.87,56.83,39.93,48.72Z"/>
        <path class="cls-4" d="M87.8,97.39c5.6-16,4.11-33.7-.69-35.07-2.28-.69-4.45.23-6.39,2.85.45,13,1.37,27,2.28,36,0,0-8.22-.57-16-.34a298.53,298.53,0,0,0-.46-50.61s8.11-.34,14-2.51v5a16.57,16.57,0,0,1,13.6-4C108,50.89,111.45,70.54,104.82,100,96.71,98.53,87.8,97.39,87.8,97.39Z"/>
        <path class="cls-4" d="M124.24,44.61c-5.25,1.71-10.85,0-12-4.34-1.15-4,.91-8.11,5.48-10.05,5.25-2.4,11.31-.69,12.57,3.88C131.32,38.1,130,42.67,124.24,44.61Zm-10,55.75c2.28-14.4,1.37-35.64-.69-49.69a117,117,0,0,0,16.22-2.52c-.91,12.8.12,37.7,1.72,49.92C131.44,98.07,123,99,114.19,100.36Z"/>
        <path class="cls-4" d="M175.88,97.73c5.25-15.65,5.25-33.7.11-35.53a4.38,4.38,0,0,0-4.46.92c2.06,9.25,1.72,22.16-1.37,37.58a118.1,118.1,0,0,0-15.3-2.06c5.14-17,3.65-34.95-.69-36.32a4.89,4.89,0,0,0-4.8,1.25c.46,13.71,1.49,28.56,2.4,36.1a158,158,0,0,0-16,1.72c1.48-16.22,1.94-36.44-.34-52,0,0,8.11-.23,13.93-2.4-.11,1.48-.11,3-.11,4.57a13.37,13.37,0,0,1,11-3c3.32.57,5.94,2.51,8,5.83,4-5,9-6.74,13.71-5.83,12.79,2.51,16.56,23.87,9.48,51.18A102.64,102.64,0,0,0,175.88,97.73Z"/>
        <path class="cls-4" d="M224.88,100.13c.23-1.14.46-2.17.58-3.31a22.22,22.22,0,0,1-9.26,3.31c-7,.8-18.62-4.23-18.85-14.51-.23-11.42,9.94-16.91,19-17.13a19.23,19.23,0,0,1,10.05,2.62c-1.94-17.36-10.05-14-9-5.71a68.1,68.1,0,0,0-16.56,2.06C198,54,208.55,40.73,226.14,47.92c19.42,7.89,10.51,37.93,12.45,51.64A108.25,108.25,0,0,0,224.88,100.13Zm-7-20.91c-3,1-5.94,4-4.69,7.09s5.26,3.31,7.77,2.4c3.54-1.37,5.94-5.14,4.91-7.43C224.66,78.65,220.66,78.2,217.92,79.22Z"/>
        <path class="cls-4" d="M242.25,100.47c4.34-25.59,2.74-67-1-87.85a114.09,114.09,0,0,0,18-3.19c-1.94,21.36-.68,68.08,2.51,89.44C252.3,99.56,242.25,100.47,242.25,100.47Z"/>
        <path class="cls-4" d="M286.46,100c-8.11-.12-15.31-2.86-21.36-11a78.83,78.83,0,0,1,10.28-11.88c3.88,7.88,10.85,9.82,12.56,7.77,1.37-1.72.46-4.69-7-7.89-6.74-2.85-12.68-7.08-13-14.62-.34-6,3.43-14,15.42-14.62,12.91-.57,19.2,8.34,21.94,17.14a45,45,0,0,0-14.74,4.34c-3.43-8.91-9-8.57-8.57-5,1.37,9.6,23.76,7.65,23.42,22.39C305.19,95.45,296.74,100.13,286.46,100Z"/>
      </g>
    </g>
    <g>
      <path class="cls-1" d="M76.92,177.5a10,10,0,0,0,9.8,12.1,9.65,9.65,0,0,0,1.69-.15,54.3,54.3,0,0,1,7.89-.63c1,0,2,0,2.85.11a8.06,8.06,0,0,0,.85,0,9.89,9.89,0,0,0,8.84-5.34,22.16,22.16,0,0,0,14,5.18,17.41,17.41,0,0,0,2.06-.12l.23,0c.48-.07,1-.15,1.42-.24a9.76,9.76,0,0,0,2.53.33,10.69,10.69,0,0,0,1.13-.06,55.7,55.7,0,0,1,5.75-.32h.05a9.92,9.92,0,0,0,7.14.38,22.36,22.36,0,0,1,6.26-.85h.67a10,10,0,0,0,9.9-11.36c3.5,8.3,9.69,11,14.2,11.83a20.34,20.34,0,0,0,3.63.33c7,0,15.48-4.1,18.88-15.13,4.74,10,13.34,15.6,24.48,15.73h.51c15.27,0,26.06-10.68,26.25-26v-.12a21.15,21.15,0,0,0-4-12.66,23.55,23.55,0,0,0,1.51-8.68c-.12-10.28-8.21-21.22-22.95-21.22-12.28,0-21.78,7.4-26.08,20.28a10,10,0,0,0,6.8,12.8,36.89,36.89,0,0,1,4.41,1.59c-2.23.89-4.79,1.95-6.95,3a10,10,0,0,0-3.84,3.18,10,10,0,0,0-3.62-3.82,10.09,10.09,0,0,0,.64-3.54,39.77,39.77,0,0,1,.6-5.87,10,10,0,0,0-3.86-9.86,10,10,0,0,0-9.52-10.93c-.21,0-5-.21-9.88-.28h-.15a10,10,0,0,0-9.59,7.17c-.31,1-.59,2.08-.86,3.13a12.77,12.77,0,0,0-1.54-.34,17.77,17.77,0,0,0-3.19-.28,21,21,0,0,0-3.36.28,10.08,10.08,0,0,0-7.82-.25,20.6,20.6,0,0,1-5.07.8,10.07,10.07,0,0,0-3.76.86,21.93,21.93,0,0,0-2.18-1,25.21,25.21,0,0,0-9.56-2l-.5,0c-3.35-9.57-12.71-15.16-25.89-15.16a60.84,60.84,0,0,0-14,1.76,10,10,0,0,0-7.44,11.7C79,147.07,79.25,166.65,76.92,177.5Z"/>
      <path class="cls-2" d="M72.92,173.5a10,10,0,0,0,9.8,12.1,9.65,9.65,0,0,0,1.69-.15,54.3,54.3,0,0,1,7.89-.63c1,0,2,0,2.85.11a8.06,8.06,0,0,0,.85,0,9.89,9.89,0,0,0,8.84-5.34,22.16,22.16,0,0,0,14,5.18,17.41,17.41,0,0,0,2.06-.12l.23,0c.48-.07,1-.15,1.42-.24a9.76,9.76,0,0,0,2.53.33,10.69,10.69,0,0,0,1.13-.06,55.7,55.7,0,0,1,5.75-.32h.05a9.92,9.92,0,0,0,7.14.38,22.36,22.36,0,0,1,6.26-.85h.67a10,10,0,0,0,9.9-11.36c3.5,8.3,9.69,11,14.2,11.83a20.34,20.34,0,0,0,3.63.33c7,0,15.48-4.1,18.88-15.13,4.74,10,13.34,15.6,24.48,15.73h.51c15.27,0,26.06-10.68,26.25-26v-.12a21.15,21.15,0,0,0-4-12.66,23.55,23.55,0,0,0,1.51-8.68c-.12-10.28-8.21-21.22-22.95-21.22-12.28,0-21.78,7.4-26.08,20.28a10,10,0,0,0,6.8,12.8,36.89,36.89,0,0,1,4.41,1.59c-2.23.89-4.79,1.95-6.95,3a10,10,0,0,0-3.84,3.18,10,10,0,0,0-3.62-3.82,10.09,10.09,0,0,0,.64-3.54,39.77,39.77,0,0,1,.6-5.87,10,10,0,0,0-3.86-9.86,10,10,0,0,0-9.52-10.93c-.21,0-5-.21-9.88-.28h-.15a10,10,0,0,0-9.59,7.17c-.31,1-.59,2.08-.86,3.13a12.77,12.77,0,0,0-1.54-.34,17.77,17.77,0,0,0-3.19-.28,21,21,0,0,0-3.36.28,10.08,10.08,0,0,0-7.82-.25,20.6,20.6,0,0,1-5.07.8,10.07,10.07,0,0,0-3.76.86,21.93,21.93,0,0,0-2.18-1,25.21,25.21,0,0,0-9.56-2l-.5,0c-3.35-9.57-12.71-15.16-25.89-15.16a60.84,60.84,0,0,0-14,1.76,10,10,0,0,0-7.44,11.7C75,143.07,75.25,162.65,72.92,173.5Z"/>
      <g>
        <path class="cls-3" d="M95.27,157.51A118.45,118.45,0,0,0,98,177a59.28,59.28,0,0,0-13.3.63c2.73-12.74,2.24-33.6-.63-47.75,10.08-2.45,26.74-3.29,28.7,9.38C113.9,146.45,110.18,155.41,95.27,157.51Zm-.21-17.15c-.14,2.66-.21,6-.14,9.87,4.06-.56,7.77-2.45,8-5.39C103.32,141.34,100.59,139.23,95.06,140.36Z"/>
        <path class="cls-3" d="M127.12,176.76a20.52,20.52,0,0,0,.35-2,13.47,13.47,0,0,1-5.67,2c-4.27.49-11.41-2.59-11.55-8.89-.14-7,6.09-10.36,11.62-10.5A11.75,11.75,0,0,1,128,159c-1.19-10.64-6.16-8.61-5.53-3.5a41.86,41.86,0,0,0-10.15,1.26c-1.68-8.26,4.76-16.38,15.54-12,11.9,4.83,6.44,23.24,7.63,31.64A66.39,66.39,0,0,0,127.12,176.76ZM122.85,164c-1.82.63-3.64,2.45-2.87,4.34s3.22,2,4.76,1.47c2.17-.84,3.64-3.15,3-4.55C127,163.6,124.53,163.32,122.85,164Z"/>
        <path class="cls-3" d="M151.9,160.45c.14-3.92-.77-6.44-2.1-6.72s-2.45.21-3.5,2a182,182,0,0,0,1.82,20.16,33,33,0,0,0-10,1.33c.7-9.66,1.19-22.05-.21-31.57a30.49,30.49,0,0,0,8.4-1.47c-.07,1.12-.14,2.38-.14,3.71a11.37,11.37,0,0,1,9.17-2.94c4.62.77,7,5.32,6.86,13.16A53.57,53.57,0,0,0,151.9,160.45Z"/>
        <path class="cls-3" d="M174,176.55c-8.12-1.47-9.59-13-8.26-25.2-1.61.07-2.59.14-2.59.14.14-3.15.56-6.09.56-6.09l2.94-.14a93,93,0,0,1,2.38-10.09c4.76.07,9.59.28,9.59.28a59.7,59.7,0,0,0-2.94,9.32l6.93-.35a49.62,49.62,0,0,0-.77,7.7,71,71,0,0,0-7.56-.77c-1.47,8.75-1.05,15.61.49,16.17s2.38-2.8,2.31-6.86c4.69,1.61,9,3.57,9,3.57C185,173.82,179.76,177.6,174,176.55Z"/>
        <path class="cls-3" d="M219.38,177.32c-6.23-.07-12.95-2.59-16.45-12,4.62-2.17,11.55-4.69,11.55-4.69,2.94,8.19,10.29,5.46,11.06,1.4.91-4.83-4.13-7-8.19-5a23.52,23.52,0,0,1-1.33-6.51c6.65-1.19,9.66-8.19,6.93-10.09-2.45-1.68-6.65,1.2-8.4,6.59-3.57-2.94-10.64-4.9-10.64-4.9,2.87-8.62,8.61-13.45,16.59-13.45,8.54,0,12.88,5.6,12.95,11.34.07,4.07-1.82,8.48-5,10.58A10.83,10.83,0,0,1,236,161.22C235.83,172.56,227.64,177.46,219.38,177.32Z"/>
      </g>
      <g>
        <path class="cls-4" d="M93.27,155.51A118.45,118.45,0,0,0,96,175a59.28,59.28,0,0,0-13.3.63c2.73-12.74,2.24-33.6-.63-47.75,10.08-2.45,26.74-3.29,28.7,9.38C111.9,144.45,108.18,153.41,93.27,155.51Zm-.21-17.15c-.14,2.66-.21,6-.14,9.87,4.06-.56,7.77-2.45,8-5.39C101.32,139.34,98.59,137.23,93.06,138.36Z"/>
        <path class="cls-4" d="M125.12,174.76a20.52,20.52,0,0,0,.35-2,13.47,13.47,0,0,1-5.67,2c-4.27.49-11.41-2.59-11.55-8.89-.14-7,6.09-10.36,11.62-10.5A11.75,11.75,0,0,1,126,157c-1.19-10.64-6.16-8.61-5.53-3.5a41.86,41.86,0,0,0-10.15,1.26c-1.68-8.26,4.76-16.38,15.54-12,11.9,4.83,6.44,23.24,7.63,31.64A66.39,66.39,0,0,0,125.12,174.76ZM120.85,162c-1.82.63-3.64,2.45-2.87,4.34s3.22,2,4.76,1.47c2.17-.84,3.64-3.15,3-4.55C125,161.6,122.53,161.32,120.85,162Z"/>
        <path class="cls-4" d="M149.9,158.45c.14-3.92-.77-6.44-2.1-6.72s-2.45.21-3.5,2a182,182,0,0,0,1.82,20.16,33,33,0,0,0-10,1.33c.7-9.66,1.19-22.05-.21-31.57a30.49,30.49,0,0,0,8.4-1.47c-.07,1.12-.14,2.38-.14,3.71a11.37,11.37,0,0,1,9.17-2.94c4.62.77,7,5.32,6.86,13.16A53.57,53.57,0,0,0,149.9,158.45Z"/>
        <path class="cls-4" d="M172,174.55c-8.12-1.47-9.59-13-8.26-25.2-1.61.07-2.59.14-2.59.14.14-3.15.56-6.09.56-6.09l2.94-.14a93,93,0,0,1,2.38-10.09c4.76.07,9.59.28,9.59.28a59.7,59.7,0,0,0-2.94,9.32l6.93-.35a49.62,49.62,0,0,0-.77,7.7,71,71,0,0,0-7.56-.77c-1.47,8.75-1.05,15.61.49,16.17s2.38-2.8,2.31-6.86c4.69,1.61,9,3.57,9,3.57C183,171.82,177.76,175.6,172,174.55Z"/>
        <path class="cls-4" d="M217.38,175.32c-6.23-.07-12.95-2.59-16.45-12,4.62-2.17,11.55-4.69,11.55-4.69,2.94,8.19,10.29,5.46,11.06,1.4.91-4.83-4.13-7-8.19-5a23.52,23.52,0,0,1-1.33-6.51c6.65-1.19,9.66-8.19,6.93-10.09-2.45-1.68-6.65,1.2-8.4,6.59-3.57-2.94-10.64-4.9-10.64-4.9,2.87-8.62,8.61-13.45,16.59-13.45,8.54,0,12.88,5.6,12.95,11.34.07,4.07-1.82,8.48-5,10.58A10.83,10.83,0,0,1,234,159.22C233.83,170.56,225.64,175.46,217.38,175.32Z"/>
      </g>
    </g>
  </g>
</svg>
